<?xml version="1.0" encoding="UTF-8" standalone="no"?>
<!-- Generator: Adobe Illustrator 19.0.0, SVG Export Plug-In . SVG Version: 6.00 Build 0)  -->

<svg
   xmlns:dc="http://purl.org/dc/elements/1.1/"
   xmlns:cc="http://creativecommons.org/ns#"
   xmlns:rdf="http://www.w3.org/1999/02/22-rdf-syntax-ns#"
   xmlns:svg="http://www.w3.org/2000/svg"
   xmlns="http://www.w3.org/2000/svg"
   xmlns:sodipodi="http://sodipodi.sourceforge.net/DTD/sodipodi-0.dtd"
   xmlns:inkscape="http://www.inkscape.org/namespaces/inkscape"
   version="1.1"
   id="Layer_1"
   x="0px"
   y="0px"
   viewBox="0 0 489.6 489.6"
   style="enable-background:new 0 0 489.6 489.6;"
   xml:space="preserve"
   inkscape:version="0.91 r13725"
   sodipodi:docname="clipboard-2.svg"><metadata
     id="metadata3474"><rdf:RDF><cc:Work
         rdf:about=""><dc:format>image/svg+xml</dc:format><dc:type
           rdf:resource="http://purl.org/dc/dcmitype/StillImage" /><dc:title></dc:title></cc:Work></rdf:RDF></metadata><defs
     id="defs3472" /><sodipodi:namedview
     pagecolor="#ffffff"
     bordercolor="#666666"
     borderopacity="1"
     objecttolerance="10"
     gridtolerance="10"
     guidetolerance="10"
     inkscape:pageopacity="0"
     inkscape:pageshadow="2"
     inkscape:window-width="1920"
     inkscape:window-height="1003"
     id="namedview3470"
     showgrid="false"
     showguides="true"
     inkscape:guide-bbox="true"
     inkscape:zoom="0.48202614"
     inkscape:cx="244.8"
     inkscape:cy="244.8"
     inkscape:window-x="-9"
     inkscape:window-y="-9"
     inkscape:window-maximized="1"
     inkscape:current-layer="Layer_1"><sodipodi:guide
       position="244.8,26.969492"
       orientation="1,0"
       id="guide3546" /><sodipodi:guide
       position="578.80678,211.60678"
       orientation="0,1"
       id="guide3548" /></sodipodi:namedview><g
     id="g3428"><g
       id="g3430"><path
         d="M434.65,52.2h-96.6V18c0-9.9-8.1-18-18-18h-150.4c-9.9,0-18,8.1-18,18v94.7c0,9.9,8.1,18,18,18h111.2c9.9,0,18-8.1,18-18    c0-9.9-8.1-18-18-18h-93.2V36h114.5v34.2c0,9.9,8.1,18,18,18h96.6v365.4H72.95V88.2h27.5c9.9,0,18-8.1,18-18c0-9.9-8.1-18-18-18    h-45.5c-9.9,0-18,8.1-18,18v401.4c0,9.9,8.1,18,18,18h379.7c9.9,0,18-8.1,18-18V70.2C452.65,60.3,444.55,52.2,434.65,52.2z"
         id="path3432" /></g></g><g
     id="g3440" /><g
     id="g3442" /><g
     id="g3444" /><g
     id="g3446" /><g
     id="g3448" /><g
     id="g3450" /><g
     id="g3452" /><g
     id="g3454" /><g
     id="g3456" /><g
     id="g3458" /><g
     id="g3460" /><g
     id="g3462" /><g
     id="g3464" /><g
     id="g3466" /><g
     id="g3468" /><g
     transform="translate(1.7284475,34.7008)"
     id="g3477"><g
       id="g3479"><path
         inkscape:connector-curvature="0"
         d="m 270.421,245.342 42,-42 c 7.3,-7.1 7.3,-18.5 0.2,-25.5 -7,-7 -18.4,-7 -25.5,0 l -42,42 -42,-42 c -7,-7 -18.4,-7 -25.5,0 -7,7 -7,18.4 0,25.5 l 42,42 -42,42 c -7,7 -7,18.4 0,25.5 3.5,3.5 8.1,5.3 12.7,5.3 4.6,0 9.2,-1.8 12.7,-5.3 l 42,-42 42,42 c 3.5,3.5 8.1,5.3 12.7,5.3 4.6,0 9.2,-1.8 12.7,-5.3 7,-7 7,-18.4 0,-25.5 l -42,-42 z"
         id="path3481" /></g></g></svg>